<svg width="221" height="221" viewBox="0 0 221 221" fill="none" xmlns="http://www.w3.org/2000/svg">
<g clip-path="url(#clip0_247_2)">
<path d="M0 15.8291C0 7.08581 7.26537 0 16.2297 0H204.77C213.735 0 221 7.08581 221 15.8291V205.171C221 213.914 213.735 221 204.77 221H16.2297C7.26537 221 0 213.914 0 205.171V15.8291ZM68.2752 185.005V85.2093H35.1114V185.005H68.2752ZM51.7002 71.5764C63.2613 71.5764 70.4576 63.9243 70.4576 54.3384C70.2504 44.5453 63.2751 37.1004 51.9212 37.1004C40.5673 37.1004 33.15 44.5591 33.15 54.3384C33.15 63.9243 40.3463 71.5764 51.4792 71.5764H51.7002V71.5764ZM119.492 185.005V129.271C119.492 126.288 119.713 123.304 120.597 121.177C122.986 115.224 128.442 109.05 137.614 109.05C149.617 109.05 154.41 118.194 154.41 131.619V185.005H187.574V127.766C187.574 97.1019 171.22 82.8474 149.396 82.8474C131.799 82.8474 123.912 92.5161 119.492 99.3257V99.671H119.271C119.344 99.5557 119.418 99.4406 119.492 99.3257V85.2093H86.3419C86.7563 94.5742 86.3419 185.005 86.3419 185.005H119.492Z" fill="white"/>
</g>
<defs>
<clipPath id="clip0_247_2">
<rect width="221" height="221" fill="white"/>
</clipPath>
</defs>
</svg>
