<svg width="221" height="221" viewBox="0 0 221 221" fill="none" xmlns="http://www.w3.org/2000/svg">
<path d="M206.818 55.2502C199.728 58.4731 192.085 60.591 184.166 61.6039C192.269 56.7235 198.531 48.9885 201.477 39.6881C193.834 44.2922 185.363 47.5152 176.431 49.3568C169.156 41.4377 158.935 36.8335 147.332 36.8335C125.693 36.8335 108.013 54.5135 108.013 76.3372C108.013 79.4681 108.381 82.5068 109.026 85.3614C76.2439 83.7039 47.0534 67.9577 27.6239 44.1081C24.2168 49.9093 22.283 56.7235 22.283 63.906C22.283 77.6264 29.1893 89.7814 39.8709 96.6877C33.333 96.6877 27.2555 94.846 21.9147 92.0835V92.3597C21.9147 111.513 35.543 127.536 53.5914 131.127C47.7968 132.713 41.7135 132.933 35.8193 131.771C38.3203 139.621 43.2185 146.49 49.8253 151.412C56.4321 156.334 64.4153 159.062 72.6526 159.212C58.6894 170.266 41.3811 176.241 23.5722 176.156C20.4414 176.156 17.3105 175.971 14.1797 175.603C31.6755 186.837 52.4864 193.375 74.7705 193.375C147.332 193.375 187.204 133.153 187.204 80.9414C187.204 79.1918 187.204 77.5343 187.112 75.7847C194.847 70.2597 201.477 63.2614 206.818 55.2502V55.2502Z" fill="white"/>
</svg>
