<svg width="215" height="221" viewBox="0 0 215 221" fill="none" xmlns="http://www.w3.org/2000/svg">
<g clip-path="url(#clip0_247_4)">
<path d="M107.051 3.45312C47.916 3.45312 0.00390625 51.3652 0.00390625 110.5C0.00390625 169.635 47.916 217.547 107.051 217.547C166.186 217.547 214.098 169.635 214.098 110.5C214.098 51.3652 166.186 3.45312 107.051 3.45312ZM159.625 76.7889L142.057 159.578C140.762 165.448 137.266 166.872 132.388 164.11L105.626 144.384L92.7203 156.815C91.2959 158.239 90.0873 159.448 87.3248 159.448L89.224 132.212L138.82 87.4072C140.978 85.508 138.345 84.4289 135.496 86.3281L74.2029 124.917L47.7865 116.672C42.0457 114.86 41.9162 110.932 48.9951 108.169L152.2 68.3719C156.992 66.6453 161.179 69.5373 159.625 76.7889V76.7889Z" fill="white"/>
</g>
<defs>
<clipPath id="clip0_247_4">
<rect width="214.1" height="221" fill="white"/>
</clipPath>
</defs>
</svg>
